<svg viewBox="0 0 279 58" fill="none" xmlns="http://www.w3.org/2000/svg" class="h-8" data-v-443a1195=""><path d="M78.3351 41.3537C74.935 41.3537 72.116 40.6338 69.8783 39.194C67.7018 37.8318 66.0486 35.7751 65.1863 33.3566L72.2204 29.263C73.4172 32.1163 75.5307 33.5416 78.561 33.5389C81.0735 33.5389 82.3297 32.8256 82.3297 31.399C82.3297 30.4558 81.6085 29.6949 80.158 29.1203C79.5478 28.8561 78.203 28.4295 76.1238 27.8403C73.1728 26.9817 70.8453 25.7783 69.1412 24.2301C67.4372 22.682 66.5786 20.5288 66.5654 17.7706C66.5654 14.7985 67.6314 12.393 69.7634 10.5542C71.8954 8.71546 74.5532 7.79078 77.7367 7.78022C80.2558 7.73198 82.7388 8.38361 84.9095 9.66258C87.0242 10.957 88.693 12.8664 89.6927 15.1353L82.7934 19.1973C81.7789 16.8037 80.1078 15.6148 77.7803 15.6307C76.9936 15.5694 76.2091 15.7746 75.5532 16.2132C75.3156 16.3889 75.1231 16.6184 74.9915 16.8829C74.8599 17.1475 74.793 17.4395 74.7963 17.735C74.8094 18.1078 74.9202 18.4706 75.1178 18.7871C75.3153 19.1036 75.5925 19.3625 75.9217 19.5381C76.672 20.0348 78.1317 20.6054 80.3007 21.25L84.0496 22.6014C85.1671 23.0235 86.2312 23.5755 87.2199 24.246C88.319 24.9515 89.1968 25.9528 89.7522 27.1349C90.322 28.4381 90.5993 29.8503 90.5646 31.2722C90.5646 34.4266 89.4457 36.8942 87.208 38.6748C84.9703 40.4555 82.0127 41.3484 78.3351 41.3537ZM99.2314 14.4854C98.6148 15.0994 97.8305 15.5174 96.977 15.687C96.1235 15.8566 95.2389 15.7703 94.4344 15.4387C93.6299 15.1072 92.9413 14.5452 92.4551 13.8236C91.969 13.1019 91.7069 12.2526 91.7019 11.3825C91.695 10.8029 91.8092 10.2282 92.0371 9.69529C92.265 9.16235 92.6017 8.68285 93.0255 8.28746C93.4327 7.87935 93.9163 7.55556 94.4487 7.33464C94.9812 7.11372 95.552 7 96.1284 7C96.7049 7 97.2757 7.11372 97.8082 7.33464C98.3406 7.55556 98.8243 7.87935 99.2314 8.28746C99.6503 8.68333 99.9827 9.16162 100.208 9.69222C100.433 10.2228 100.546 10.7943 100.539 11.3706C100.546 11.9516 100.433 12.5277 100.208 13.0634C99.9829 13.5992 99.6506 14.0831 99.2314 14.4854ZM92.3043 40.6642V21.2144L99.9368 17.6795V40.6642H92.3043ZM119.612 17.6795H127.142V39.7448C127.174 41.4349 126.82 43.1101 126.108 44.6429C125.482 45.9902 124.528 47.1592 123.334 48.0431C122.171 48.8851 120.874 49.523 119.498 49.9294C115.772 50.9827 111.796 50.7024 108.255 49.1368C106.344 48.2591 104.765 46.7925 103.749 44.952L110.09 41.2745C110.591 42.1098 111.308 42.7941 112.166 43.2552C113.024 43.7163 113.991 43.937 114.964 43.8939C116.172 43.9473 117.36 43.5742 118.321 42.8398C119.177 42.1344 119.609 41.108 119.609 39.7567V37.5494C118.05 39.441 115.909 40.3868 113.185 40.3868C111.709 40.4238 110.243 40.1383 108.889 39.5504C107.536 38.9624 106.326 38.0861 105.346 36.9827C103.282 34.7287 102.17 31.7636 102.243 28.7082C102.17 25.6528 103.282 22.6876 105.346 20.4337C106.327 19.3309 107.536 18.455 108.89 17.8671C110.244 17.2792 111.709 16.9934 113.185 17.0296C115.911 17.0296 118.056 17.9807 119.62 19.8828L119.612 17.6795ZM111.223 32.1361C112.186 33.0105 113.44 33.4949 114.74 33.4949C116.041 33.4949 117.294 33.0105 118.257 32.1361C119.128 31.2088 119.613 29.9844 119.613 28.7121C119.613 27.4399 119.128 26.2155 118.257 25.2882C117.293 24.4163 116.04 23.9335 114.74 23.9335C113.44 23.9335 112.187 24.4163 111.223 25.2882C110.35 26.2146 109.864 27.4394 109.864 28.7121C109.864 29.9849 110.35 31.2097 111.223 32.1361ZM144.436 17.0335C145.575 16.996 146.709 17.2046 147.76 17.645C148.811 18.0854 149.755 18.7473 150.527 19.5856C152.112 21.2897 152.905 23.7348 152.905 26.9209V40.6642H145.272V27.8839C145.272 26.6898 144.958 25.7862 144.329 25.1733C143.996 24.8622 143.605 24.6206 143.177 24.4628C142.75 24.3049 142.295 24.2339 141.84 24.2539C141.328 24.2232 140.814 24.3037 140.335 24.4897C139.857 24.6757 139.424 24.963 139.066 25.3318C138.408 26.0531 138.08 27.0874 138.08 28.4347V40.6642H130.423V17.6795H138.056V19.978C139.435 18.015 141.564 17.0335 144.444 17.0335H144.436ZM172.065 17.6795H179.698V40.6642H172.073V38.552C170.512 40.4013 168.336 41.326 165.546 41.326C164.086 41.3505 162.639 41.052 161.308 40.4519C159.977 39.8518 158.795 38.9648 157.846 37.8545C155.778 35.5402 154.743 32.6512 154.743 29.1877C154.743 25.7241 155.778 22.8352 157.846 20.5209C158.795 19.4106 159.977 18.5236 161.308 17.9235C162.639 17.3233 164.086 17.0249 165.546 17.0494C168.336 17.0494 170.512 17.9741 172.073 19.8234L172.065 17.6795ZM163.743 32.8058C164.69 33.6923 165.939 34.1855 167.236 34.1855C168.534 34.1855 169.783 33.6923 170.73 32.8058C171.181 32.3185 171.532 31.7463 171.76 31.1225C171.989 30.4986 172.091 29.8356 172.061 29.1718C172.091 28.5087 171.989 27.8463 171.76 27.2231C171.532 26.5999 171.181 26.0284 170.73 25.5418C169.783 24.6553 168.534 24.1621 167.236 24.1621C165.939 24.1621 164.69 24.6553 163.743 25.5418C163.29 26.0276 162.939 26.5988 162.709 27.2222C162.48 27.8455 162.377 28.5083 162.408 29.1718C162.379 29.8367 162.484 30.5006 162.715 31.1246C162.946 31.7486 163.3 32.3202 163.755 32.8058H163.743ZM182.959 40.6642V10.6375L190.584 7.0986V40.6642H182.959Z" fill="#6366F1"></path> <path d="M199.087 15.687C199.941 15.5174 200.725 15.0994 201.342 14.4854C201.761 14.0831 202.093 13.5992 202.318 13.0634C202.543 12.5277 202.656 11.9516 202.649 11.3706C202.656 10.7943 202.543 10.2228 202.318 9.69222C202.093 9.16162 201.76 8.68333 201.342 8.28746C200.934 7.87935 200.451 7.55556 199.918 7.33464C199.386 7.11372 198.815 7 198.239 7C197.662 7 197.091 7.11372 196.559 7.33464C196.026 7.55556 195.543 7.87935 195.136 8.28746C194.712 8.68285 194.375 9.16235 194.147 9.69529C193.919 10.2282 193.805 10.8029 193.812 11.3825C193.817 12.2526 194.079 13.1019 194.565 13.8236C195.051 14.5452 195.74 15.1072 196.545 15.4387C197.349 15.7703 198.234 15.8566 199.087 15.687Z" fill="#C8C7FE"></path> <path d="M194.414 21.2144V40.6642H202.047V17.6795L194.414 21.2144Z" fill="#C8C7FE"></path> <path d="M215.933 17.1416C212.539 17.1416 209.738 18.2212 207.563 20.3967C205.409 22.5501 204.348 25.435 204.348 29.0091C204.348 32.5834 205.409 35.4805 207.561 37.6602L207.563 37.6619C209.738 39.8374 212.539 40.917 215.933 40.917C218.692 40.917 221.084 40.1845 223.091 38.7068C225.1 37.2286 226.424 35.2314 227.063 32.7316L227.181 32.2704H219.013L218.911 32.4747C218.551 33.1939 218.161 33.6518 217.758 33.898C217.354 34.1446 216.758 34.2876 215.933 34.2876C214.67 34.2876 213.74 33.8258 213.091 32.9145C212.446 31.9445 212.107 30.6525 212.107 29.0091C212.107 27.363 212.447 26.0856 213.091 25.144C213.738 24.2103 214.704 23.7306 216.054 23.7306C216.736 23.7306 217.301 23.8851 217.763 24.1776C218.225 24.4703 218.61 24.9165 218.908 25.5381L219.009 25.7478H227.176L227.064 25.2904C226.427 22.6866 225.117 20.6696 223.127 19.2675C221.145 17.8442 218.74 17.1416 215.933 17.1416Z" fill="#C8C7FE"></path> <path fill-rule="evenodd" clip-rule="evenodd" d="M241.021 17.1416C237.602 17.1416 234.713 18.2201 232.379 20.3864C230.034 22.5368 228.871 25.4112 228.871 28.9688C228.871 32.5269 230.034 35.4262 232.377 37.6295L232.378 37.631C234.738 39.8239 237.64 40.917 241.062 40.917C244.483 40.917 247.361 39.8238 249.668 37.628C251.983 35.4243 253.131 32.5255 253.131 28.9688C253.131 25.4116 251.969 22.5375 249.624 20.3871C247.317 18.2199 244.441 17.1416 241.021 17.1416ZM236.63 29.0091C236.63 27.2381 237.073 25.9603 237.898 25.1113C238.773 24.211 239.795 23.771 240.981 23.771C242.167 23.771 243.189 24.211 244.064 25.1114L244.068 25.1151C244.918 25.9645 245.372 27.2408 245.372 29.0091C245.372 30.7793 244.93 32.0736 244.101 32.9511C243.254 33.848 242.247 34.2876 241.062 34.2876C239.876 34.2876 238.839 33.8477 237.936 32.9454C237.084 32.0677 236.63 30.7755 236.63 29.0091Z" fill="#C8C7FE"></path> <path d="M269.718 17.1416C266.943 17.1416 264.777 18.0541 263.27 19.8941V17.3837H255.632V40.6346H263.27V28.0409C263.27 26.651 263.629 25.6396 264.296 24.9493C264.993 24.2285 265.951 23.8517 267.217 23.8517C268.484 23.8517 269.425 24.2286 270.094 24.9446L270.098 24.9492L270.103 24.9537C270.793 25.6445 271.164 26.6543 271.164 28.0409V40.6346H278.762V27.113C278.762 24.086 277.935 21.6474 276.242 19.8415C274.578 18.0368 272.391 17.1416 269.718 17.1416Z" fill="#C8C7FE"></path> <g clip-path="url(#clip0)"><path d="M48.1556 38.8397C53.5892 33.4061 53.5892 24.5966 48.1556 19.163C43.6184 14.6258 36.7273 13.8773 31.4134 16.9174L21.7505 7.25452L9.84033 19.1647C4.40771 24.5973 4.40772 33.4053 9.84033 38.8379C14.3772 43.3748 21.268 44.1229 26.5812 41.0822L36.2471 50.7481L48.1556 38.8397Z" fill="url(#paint0_linear)"></path> <path d="M31.4208 16.9098L9.6651 38.6657C4.32712 33.3277 4.32713 24.6731 9.6651 19.3352L21.7556 7.24466L21.7579 7.24692L28.9997 0.00512695L31.4137 2.41911C35.4147 6.4202 35.4171 12.9058 31.4208 16.9098Z" fill="url(#paint1_linear)"></path> <path d="M36.2438 50.7552L29.0029 57.9961L26.5866 55.5798C22.5831 51.5763 22.5831 45.0854 26.5866 41.0819L26.5868 41.0821L48.3348 19.3341C53.6728 24.6721 53.6727 33.3266 48.3348 38.6646L36.244 50.7554L36.2438 50.7552Z" fill="url(#paint2_linear)"></path></g> <defs><linearGradient id="paint0_linear" x1="39.7407" y1="42.0089" x2="19.5979" y2="21.8264" gradientUnits="userSpaceOnUse"><stop stop-color="#302988"></stop> <stop offset="0.56033" stop-color="#4338CA"></stop> <stop offset="1" stop-color="#302988"></stop></linearGradient> <linearGradient id="paint1_linear" x1="43.8018" y1="-20.4069" x2="2.2962" y2="40.8105" gradientUnits="userSpaceOnUse"><stop stop-color="#D0BAFF"></stop> <stop offset="0.46875" stop-color="#6366F1"></stop> <stop offset="1" stop-color="#4345A6"></stop></linearGradient> <linearGradient id="paint2_linear" x1="15.2084" y1="83.8543" x2="52.3384" y2="10.7985" gradientUnits="userSpaceOnUse"><stop stop-color="#D0BAFF"></stop> <stop offset="0.46875" stop-color="#6366F1"></stop> <stop offset="1" stop-color="#4345A6"></stop></linearGradient> <clipPath id="clip0"><rect width="58" height="58" fill="white"></rect></clipPath></defs></svg>